<svg height="73" viewBox="0 0 73 73" width="73" xmlns="http://www.w3.org/2000/svg"><g fill="none" fill-rule="nonzero"><rect fill="#fff" height="71" rx="14" stroke="#292337" stroke-width="2" width="71" x="1" y="1"/><g transform="translate(12 12)"><path d="m42.3050847 24.4067797h-3.2542372v-1.6271187h1.6271186v-6.5084746h1.6271186z" fill="#68607c"/><path d="m27.6610169 24.4067797h-22.77966097v-8.1355933h1.62711865v6.5084746h21.15254232z" fill="#68607c"/><ellipse cx="23.59322" cy="31.728814" fill="#ed6571" rx="9.762712" ry="2.440678"/><path d="m33.3559322 31.7288136v4.8813559c0 1.3505085-4.3688136 2.440678-9.7627119 2.440678s-9.7627118-1.0901695-9.7627118-2.440678v-4.8813559c0 1.3505084 4.3688135 2.4406779 9.7627118 2.4406779s9.7627119-1.0901695 9.7627119-2.4406779z" fill="#ffe5ca"/><path d="m33.3559322 36.6101695v4.8813559c0 1.3505085-4.3688136 2.440678-9.7627119 2.440678s-9.7627118-1.0901695-9.7627118-2.440678v-4.8813559c0 1.3505085 4.3688135 2.440678 9.7627118 2.440678s9.7627119-1.0901695 9.7627119-2.440678z" fill="#ffe5ca"/><path d="m33.3559322 41.4915254v4.881356c0 1.3505084-4.3688136 2.4406779-9.7627119 2.4406779s-9.7627118-1.0901695-9.7627118-2.4406779v-4.881356c0 1.3505085 4.3688135 2.440678 9.7627118 2.440678s9.7627119-1.0901695 9.7627119-2.440678z" fill="#ffe5ca"/><path d="m22.779661 16.2711864h1.6271187v15.4576272h-1.6271187z" fill="#68607c"/><path d="m35.7966102 22.779661h1.6271186v1.6271187h-1.6271186z" fill="#68607c"/><path d="m32.5423729 22.779661h1.6271186v1.6271187h-1.6271186z" fill="#68607c"/><path d="m29.2881356 22.779661h1.6271186v1.6271187h-1.6271186z" fill="#68607c"/><ellipse cx="23.59322" cy="2.440678" fill="#7bc2cc" rx="6.508475" ry="2.440678"/><ellipse cx="40.677966" cy="2.440678" fill="#7bc2cc" rx="6.508475" ry="2.440678"/><ellipse cx="6.508475" cy="2.440678" fill="#7bc2cc" rx="6.508475" ry="2.440678"/><g fill="#ffe5ca"><path d="m47.1864407 6.50847458v4.06779662c0 1.3505085-2.9125424 2.440678-6.5084746 2.440678s-6.5084746-1.0901695-6.5084746-2.440678v-4.06779662c0 1.35050847 2.9125424 2.44067796 6.5084746 2.44067796s6.5084746-1.09016949 6.5084746-2.44067796z"/><path d="m47.1864407 10.5762712v4.0677966c0 1.3505085-2.9125424 2.440678-6.5084746 2.440678s-6.5084746-1.0901695-6.5084746-2.440678v-4.0677966c0 1.3505085 2.9125424 2.440678 6.5084746 2.440678s6.5084746-1.0901695 6.5084746-2.440678z"/><path d="m47.1864407 2.44067797v4.06779661c0 1.35050847-2.9125424 2.44067796-6.5084746 2.44067796s-6.5084746-1.09016949-6.5084746-2.44067796v-4.06779661c0 1.35050847 2.9125424 2.44067796 6.5084746 2.44067796s6.5084746-1.09016949 6.5084746-2.44067796z"/><path d="m23.5932203 4.88135593c3.5959322 0 6.5084746-1.09016949 6.5084746-2.44067796v4.06779661c0 1.35050847-2.9125424 2.44067796-6.5084746 2.44067796s-6.5084745-1.09016949-6.5084745-2.44067796v-4.06779661c0 1.35050847 2.9125423 2.44067796 6.5084745 2.44067796z"/><path d="m30.1016949 10.5762712v4.0677966c0 1.3505085-2.9125424 2.440678-6.5084746 2.440678s-6.5084745-1.0901695-6.5084745-2.440678v-4.0677966c0 1.3505085 2.9125423 2.440678 6.5084745 2.440678s6.5084746-1.0901695 6.5084746-2.440678z"/><path d="m30.1016949 6.50847458v4.06779662c0 1.3505085-2.9125424 2.440678-6.5084746 2.440678s-6.5084745-1.0901695-6.5084745-2.440678v-4.06779662c0 1.35050847 2.9125423 2.44067796 6.5084745 2.44067796s6.5084746-1.09016949 6.5084746-2.44067796z"/><path d="m13.0169492 2.44067797v4.06779661c0 1.35050847-2.9125424 2.44067796-6.50847462 2.44067796-3.59593221 0-6.50847458-1.09016949-6.50847458-2.44067796v-4.06779661c0 1.35050847 2.91254237 2.44067796 6.50847458 2.44067796 3.59593222 0 6.50847462-1.09016949 6.50847462-2.44067796z"/><path d="m13.0169492 6.50847458v4.06779662c0 1.3505085-2.9125424 2.440678-6.50847462 2.440678-3.59593221 0-6.50847458-1.0901695-6.50847458-2.440678v-4.06779662c0 1.35050847 2.91254237 2.44067796 6.50847458 2.44067796 3.59593222 0 6.50847462-1.09016949 6.50847462-2.44067796z"/><path d="m13.0169492 10.5762712v4.0677966c0 1.3505085-2.9125424 2.440678-6.50847462 2.440678-3.59593221 0-6.50847458-1.0901695-6.50847458-2.440678v-4.0677966c0 1.3505085 2.91254237 2.440678 6.50847458 2.440678 3.59593222 0 6.50847462-1.0901695 6.50847462-2.440678z"/></g><g fill="#fac7a4" transform="translate(.813559 4.067797)"><path d="m34.9399322 4.03444068c1.1934915.51823729 2.9540339.84691525 4.9244746.84691525 3.5959322 0 6.5084746-1.09016949 6.5084746-2.44067796v-2.44067797c0 2.08027119-4.9879322 3.79037288-11.4329492 4.03444068z"/><path d="m34.9399322 8.10223729c1.1934915.51823729 2.9540339.84691525 4.9244746.84691525 3.5959322 0 6.5084746-1.09016949 6.5084746-2.44067796v-2.44067797c0 2.08027119-4.9879322 3.79037288-11.4329492 4.03444068z"/><path d="m34.9399322 12.1700339c1.1934915.5182373 2.9540339.8469153 4.9244746.8469153 3.5959322 0 6.5084746-1.0901695 6.5084746-2.440678v-2.44067798c0 2.08027118-4.9879322 3.79037288-11.4329492 4.03444068z"/><path d="m15.3111864 34.1141695c1.748339.5190508 4.3460339.850983 7.2593899.8664407 5.5281356-.0284746 9.9717966-1.1056271 9.9717966-2.4382373v-2.440678c0 2.0338983-7.4701017 3.7098305-17.2311865 4.0124746z"/><path d="m15.3111864 38.9955254c1.748339.5190509 4.3460339.8509831 7.2593899.8664407 5.5281356-.0284746 9.9717966-1.1056271 9.9717966-2.4382373v-2.440678c0 2.0338984-7.4701017 3.7098306-17.2311865 4.0124746z"/><path d="m15.3111864 43.8768814c1.748339.5190508 4.3460339.850983 7.2593899.8664406 5.5281356-.0284745 9.9717966-1.1056271 9.9717966-2.4382373v-2.4406779c0 2.0338983-7.4701017 3.7098305-17.2311865 4.0124746z"/><path d="m17.8551864 4.03444068c1.1934916.51823729 2.9540339.84691525 4.9244746.84691525 3.5959322 0 6.5084746-1.09016949 6.5084746-2.44067796v-2.44067797c0 2.08027119-4.9879322 3.79037288-11.4329492 4.03444068z"/><path d="m17.8551864 8.10223729c1.1934916.51823729 2.9540339.84691525 4.9244746.84691525 3.5959322 0 6.5084746-1.09016949 6.5084746-2.44067796v-2.44067797c0 2.08027119-4.9879322 3.79037288-11.4329492 4.03444068z"/><path d="m17.8551864 12.1700339c1.1934916.5182373 2.9540339.8469153 4.9244746.8469153 3.5959322 0 6.5084746-1.0901695 6.5084746-2.440678v-2.44067798c0 2.08027118-4.9879322 3.79037288-11.4329492 4.03444068z"/><path d="m.77044068 4.03444068c1.19349152.51823729 2.9540339.84691525 4.92447457.84691525 3.59593221 0 6.50847455-1.09016949 6.50847455-2.44067796v-2.44067797c0 2.08027119-4.98793217 3.79037288-11.43294912 4.03444068z"/><path d="m.77044068 8.10223729c1.19349152.51823729 2.9540339.84691525 4.92447457.84691525 3.59593221 0 6.50847455-1.09016949 6.50847455-2.44067796v-2.44067797c0 2.08027119-4.98793217 3.79037288-11.43294912 4.03444068z"/><path d="m.77044068 12.1700339c1.19349152.5182373 2.9540339.8469153 4.92447457.8469153 3.59593221 0 6.50847455-1.0901695 6.50847455-2.440678v-2.44067798c0 2.08027118-4.98793217 3.79037288-11.43294912 4.03444068z"/></g></g></g></svg>